<?xml version="1.0" standalone="no"?>
<!DOCTYPE svg PUBLIC "-//W3C//DTD SVG 1.1//EN" "http://www.w3.org/Graphics/SVG/1.1/DTD/svg11.dtd" >
<svg xmlns="http://www.w3.org/2000/svg">
<metadata>Generated by IcoMoon</metadata>
<defs>
<font id="icomoon" horiz-adv-x="1024">
<font-face units-per-em="1024" ascent="960" descent="-64" />
<missing-glyph horiz-adv-x="1024" />
<glyph unicode="&#x20;" horiz-adv-x="512" d="" />
<glyph unicode="&#xe900;" glyph-name="accessibility" d="M416 864c0 53.024 42.976 96 96 96s96-42.976 96-96c0-53.024-42.976-96-96-96s-96 42.976-96 96zM640 640l329.6 142.176-23.776 59.424-401.824-137.6h-64l-401.824 137.6-23.776-59.424 329.6-142.176v-256l-131.264-424.576 59.84-22.688 185.728 415.264h27.424l185.728-415.264 59.84 22.688-131.264 424.576z" />
<glyph unicode="&#xe901;" glyph-name="accountcircle" d="M512 139.989c105.984 0 200.021 56.021 256 137.984-2.005 84.011-171.989 132.011-256 132.011-86.016 0-253.995-48-256-132.011 56.021-82.005 150.016-137.984 256-137.984zM512 745.984c-70.016 0-128-57.984-128-128s57.984-128 128-128 128 57.984 128 128-57.984 128-128 128zM512 873.984c235.989 0 425.984-189.995 425.984-425.984s-189.995-425.984-425.984-425.984-425.984 189.995-425.984 425.984 189.995 425.984 425.984 425.984z" />
<glyph unicode="&#xe902;" glyph-name="addalert" d="M681.984 404.011v86.016h-128v128h-84.011v-128h-128v-86.016h128v-128h84.011v128h128zM806.016 242.005l89.984-89.984v-45.995h-768v45.995l89.984 89.984v248.021c0 137.984 96 256 226.005 285.995v29.995c0 38.016 29.995 68.011 68.011 68.011s68.011-29.995 68.011-68.011v-29.995c130.005-29.995 226.005-148.011 226.005-285.995v-248.021zM427.989 64h168.021c0-45.995-38.016-86.016-84.011-86.016s-84.011 40.021-84.011 86.016z" />
<glyph unicode="&#xe903;" glyph-name="addressbook" d="M192 960v-1024h768v1024h-768zM576 703.68c70.496 0 127.68-57.152 127.68-127.68s-57.152-127.68-127.68-127.68-127.68 57.152-127.68 127.68 57.152 127.68 127.68 127.68v0zM768 192h-384v64c0 70.688 57.312 128 128 128v0h128c70.688 0 128-57.312 128-128v-64zM64 896h96v-192h-96v192zM64 640h96v-192h-96v192zM64 384h96v-192h-96v192zM64 128h96v-192h-96v192z" />
<glyph unicode="&#xe904;" glyph-name="advancedsearch" d="M963.072 45.376l-273.568 273.504c64.256 67.168 99.744 154.784 99.744 248.064 0 197.824-161.024 358.848-358.976 358.848-197.824 0-358.848-161.024-358.848-358.848 0-95.936 37.312-186.048 105.216-253.856 67.68-67.744 157.856-104.96 253.632-104.96 68 0 133.024 18.88 189.248 53.76l280-280c17.568-17.472 45.888-17.472 63.488 0 17.408 17.504 17.408 45.92 0.064 63.488zM430.272 297.664c-71.744 0-139.456 28.16-190.272 78.944-50.848 50.848-78.848 118.368-78.848 190.304 0 148.384 120.672 269.152 269.12 269.152s269.216-120.768 269.216-269.152c0-71.936-28-139.456-78.848-190.304-50.848-50.784-118.336-78.944-190.368-78.944zM639.648 623.968v-99.904h-166.464v-166.4h-99.904v166.4h-166.464v99.904h166.464v166.464h99.904v-166.464h166.464z" />
<glyph unicode="&#xe905;" glyph-name="aidkit" d="M896 704h-192v128c0 35.2-28.8 64-64 64h-256c-35.2 0-64-28.8-64-64v-128h-192c-70.4 0-128-57.6-128-128v-512c0-70.4 57.6-128 128-128h768c70.4 0 128 57.6 128 128v512c0 70.4-57.6 128-128 128zM384 832h256v-128h-256v128zM768 256h-192v-192h-128v192h-192v128h192v192h128v-192h192v-128z" />
<glyph unicode="&#xe906;" glyph-name="alarm" d="M512 832c-247.424 0-448-200.576-448-448s200.576-448 448-448 448 200.576 448 448-200.576 448-448 448zM512 24c-198.816 0-360 161.184-360 360s161.184 360 360 360c198.816 0 360-161.184 360-360s-161.184-360-360-360zM934.784 672.832c16.032 28.064 25.216 60.544 25.216 95.168 0 106.048-85.952 192-192 192-61.824 0-116.8-29.216-151.904-74.592 131.872-27.232 245.216-105.184 318.72-212.576v0zM407.936 885.408c-35.104 45.376-90.112 74.592-151.936 74.592-106.048 0-192-85.952-192-192 0-34.624 9.184-67.136 25.216-95.168 73.504 107.392 186.816 185.344 318.72 212.576zM512 384v256h-64v-320h256v64z" />
<glyph unicode="&#xe907;" glyph-name="alarm2" d="M766.016 333.664c-15.968 139.84-164.416 241.408-301.664 212.288-126.624-26.816-211.36-131.584-211.52-261.44-0.16-54.176 0-108.224 0-162.464 0-6.848 0.608-13.728 0.928-21.184h519.232c-1.888 78.688 1.696 156.416-6.976 232.8zM511.328 400.384c-63.648-5.696-105.568-46.4-110.848-107.936-2.624-30.208-15.968-44.736-40.032-43.584-22.784 1.024-35.232 17.472-34.912 46.272 1.216 96.928 85.568 180.672 182.72 181.408 23.488 0.256 40.768-14.912 41.664-36.448 1.024-21.312-14.944-37.568-38.592-39.744zM122.784 251.648c-17.472 0-34.912-0.576-52.288 0.16-24.256 0.96-38.592 15.040-38.72 36.768-0.096 22.016 13.76 36.16 38.336 36.608 34.88 0.704 69.728 0.672 104.544 0 25.408-0.448 39.168-13.504 39.616-35.328 0.576-22.624-13.888-37.024-39.36-38.048-17.312-0.704-34.752-0.096-52.16-0.16zM900.928 325.28c18.080 0 36.16 0.704 54.208-0.192 23.616-1.184 36.928-14.752 37.056-36.032 0.096-21.056-13.376-36.256-36.352-36.96-36.768-1.12-73.632-1.088-110.336-0.064-22.592 0.608-36.16 16.064-36 37.28 0.192 21.248 13.632 34.752 37.216 35.776 17.984 0.832 36.032 0.192 54.176 0.192zM866.912 610.24c-0.064 0.064-0.064 0.096-0.064 0.096-0.608 8.96-4.512 17.568-11.776 24.256-7.936 7.36-17.344 10.656-26.784 9.792-9.632 1.088-19.264-3.648-26.976-11.264-26.624-26.112-52.992-52.416-78.656-79.52-8.256-8.608-11.84-18.88-11.36-28.736-0.064-0.064-0.064-0.096-0.064-0.192 0 0 0-0.064 0.064-0.096 0.608-8.96 4.544-17.568 11.776-24.256 7.872-7.36 17.344-10.656 26.784-9.728 9.632-1.088 19.2 3.648 26.976 11.264 26.56 26.112 52.992 52.416 78.656 79.456 8.192 8.64 11.84 18.944 11.36 28.768 0 0.064 0 0.064 0.064 0.16zM141.632 598.976c0 0 0.064 0.064 0.096 0.096-0.448 8.96 2.56 18.016 9.024 25.44 7.072 8.192 16.032 12.48 25.504 12.704 9.536 2.112 19.648-1.536 28.16-8.256 29.248-23.040 58.368-46.336 86.848-70.336 9.12-7.744 13.888-17.472 14.496-27.328 0-0.064 0.064-0.096 0.096-0.16 0-0.064-0.064-0.096-0.096-0.16 0.448-8.96-2.56-17.984-9.024-25.408-7.104-8.192-16.032-12.48-25.536-12.704-9.472-2.112-19.616 1.536-28.16 8.256-29.28 23.040-58.432 46.336-86.88 70.336-9.152 7.68-13.888 17.472-14.4 27.328-0.064 0.064-0.096 0.096-0.096 0.16zM547.584 682.080c0-18.624 0.608-37.312-0.16-56-0.864-22.848-15.424-36.544-36.512-36.096-20.288 0.448-33.984 13.76-34.4 36.096-0.768 37.952-0.832 75.936-0.064 113.984 0.416 20.8 16.544 36 35.488 35.936 19.040-0.064 34.656-15.008 35.52-35.936 0.928-19.296 0.192-38.656 0.192-57.952h-0.096z" />
<glyph unicode="&#xe908;" glyph-name="alarmoff" d="M342.016 820.011l-36.011-29.995-61.995 59.989 38.016 29.995zM701.995 176l-420.011 420.011c-41.984-52.011-68.011-118.016-68.011-189.995 0-166.016 132.011-299.989 297.984-299.989 72.021 0 137.984 27.989 189.995 70.016zM123.989 861.995c262.571-262.101 525.355-523.989 788.011-786.005l-54.016-54.016-93.995 93.995c-68.011-57.984-155.989-93.995-251.989-93.995-212.011 0-384 171.989-384 384 0 96 36.011 182.016 93.995 249.984l-34.005 34.005-48-40.021-59.989 61.995 48 38.016-57.984 57.984zM937.984 715.989l-54.016-66.005-196.011 166.016 54.016 64zM512 704c-36.011 0-70.016-6.016-102.016-18.005l-66.005 64c50.005 24.021 107.989 40.021 168.021 40.021 212.011 0 384-171.989 384-384 0-59.989-13.995-118.016-38.016-168.021l-66.005 64c11.989 32 18.005 68.011 18.005 104.021 0 166.016-132.011 297.984-297.984 297.984z" />
<glyph unicode="&#xe909;" glyph-name="alarmon" d="M450.005 340.011l210.005 212.011 45.995-45.995-256-256-136.021 136.021 43.989 43.989zM512 105.984c166.016 0 297.984 134.016 297.984 299.989s-132.011 297.984-297.984 297.984-297.984-132.011-297.984-297.984 132.011-299.989 297.984-299.989zM512 790.016c212.011 0 384-171.989 384-384s-171.989-384-384-384-384 171.989-384 384 171.989 384 384 384zM336 816l-196.011-164.011-54.016 64 196.011 164.011zM937.984 715.989l-54.016-66.005-196.011 166.016 54.016 64z" />
<glyph unicode="&#xe90a;" glyph-name="alergiederma" d="M926.464 156.352c-26.048 28.16-40.128 62.336-43.392 99.648-1.728 19.904-4.672 40.96-9.28 60.352-16.576 69.952-51.2 132.544-88.128 193.408-13.44 22.272-28.096 44.928-36.736 69.184-10.496 29.44-15.424 61.056-22.656 91.648-14.016 59.392-27.584 118.912-42.368 178.112-3.648 14.528-10.304 28.672-17.664 41.792-6.4 11.328-18.048 14.912-31.168 11.84-12.416-3.008-17.152-12.736-17.792-23.424-0.896-14.592-0.96-29.632 1.472-44.032 10.752-63.936 22.72-127.616 33.856-191.488 1.664-9.728 3.008-20.224 0.96-29.632-1.472-6.72-8.448-16.576-13.76-17.152-6.4-0.64-13.888 6.72-20.48 11.2-2.112 1.472-3.008 4.8-4.288 7.36-35.712 71.616-70.976 143.488-107.392 214.784-14.912 29.184-31.36 57.728-49.152 85.248-10.304 15.936-22.848 17.792-37.12 11.008-18.24-8.576-25.472-21.632-21.44-40.128 1.6-7.424 3.84-14.784 6.848-21.76 20.288-46.72 41.152-93.312 61.184-140.16 18.368-42.88 36.096-86.016 53.504-129.344 3.904-9.856 5.568-21.312-6.144-27.84-11.072-6.208-19.712 0.96-25.984 8.896-17.92 22.784-36.352 45.312-52.096 69.632-43.328 66.752-84.928 134.656-128.256 201.408-9.152 14.080-21.952 26.176-34.688 37.44-9.28 8.256-21.568 9.92-33.408 3.2-12.352-6.976-18.816-17.92-18.24-31.744 0.448-9.344 2.304-19.136 5.952-27.712 6.336-14.848 13.568-29.504 22.144-43.2 47.296-75.52 95.232-150.656 142.656-226.048 10.624-16.96 21.056-34.112 29.76-51.968 2.432-4.928 0.384-15.808-3.456-18.752-4.608-3.392-14.592-3.712-20.224-1.024-9.728 4.608-18.304 11.904-26.496 19.072-63.040 54.592-125.504 109.696-188.928 163.84-13.568 11.584-29.376 21.44-45.568 28.992-21.696 10.176-37.632 2.688-47.808-18.88-7.616-16.128-4.928-27.52 12.48-44.224 63.488-61.12 127.232-122.048 191.104-182.848 22.016-20.992 49.28-38.272 66.112-62.72 24.192-35.136 45.184-73.088 50.688-117.76 4.8-39.168-27.648-55.104-54.080-45.952-17.088 5.888-33.792 12.736-50.688 19.2-53.504 20.672-107.776 25.472-161.856 3.968-18.176-7.168-36.16-17.6-50.752-30.592-19.776-17.472-11.264-44.544 14.464-51.712 6.72-1.856 14.144-1.728 21.248-1.664 77.888 0.896 151.424-14.976 216.384-59.648 36.224-24.96 76.096-38.464 118.592-47.232 46.656-9.536 93.312-19.136 139.456-31.040 33.216-8.512 62.976-25.152 84.736-52.864 0.128-0.128 0.192-0.448 0.32-0.64 21.056-2.944 67.136-16 119.552 6.144 0.256 0.448 0.832 0.768 1.152 1.216 6.208 3.328 14.784 8.384 24.512 14.976 10.176 5.696 20.224 14.912 30.912 24.064 10.24 9.792 20.864 20.352 29.248 32.832 9.472 11.648 16.128 25.28 22.912 37.76 5.696 12.992 11.904 25.28 14.976 36.608 3.2 9.152 5.44 16.832 7.232 23.232-5.632 0.96-10.368 2.304-12.928 5.12zM511.040 323.072c-4.608 0-8.32 3.648-8.32 8.128s3.712 8.128 8.32 8.128 8.32-3.648 8.32-8.128-3.712-8.128-8.32-8.128zM564.416 456.384c11.776 0 21.312-9.536 21.312-21.312s-9.536-21.376-21.312-21.376-21.312 9.536-21.312 21.312 9.536 21.376 21.312 21.376zM564.416 231.872c-9.344 0-16.96 7.616-16.96 16.96s7.616 16.96 16.96 16.96c9.344 0 16.96-7.616 16.96-16.96 0-9.408-7.616-16.96-16.96-16.96zM581.376 320.128c-11.776 0-21.376 9.536-21.376 21.312s9.536 21.312 21.312 21.312 21.376-9.472 21.376-21.312c0-11.776-9.536-21.312-21.312-21.312zM638.272 413.696c0 4.48 3.712 8.128 8.32 8.128s8.32-3.648 8.32-8.128c0-4.48-3.712-8.128-8.32-8.128s-8.32 3.648-8.32 8.128zM663.488 188.544c-9.344 0-16.96 7.616-16.96 16.96s7.552 16.96 16.96 16.96 16.96-7.616 16.96-16.96c0-9.344-7.552-16.96-16.96-16.96zM663.488 297.344c-9.344 0-16.96 7.616-16.96 16.96s7.552 16.96 16.96 16.96 16.96-7.616 16.96-16.96c0-9.408-7.552-16.96-16.96-16.96zM726.656 281.088c-4.608 0-8.32 3.648-8.32 8.128s3.712 8.128 8.32 8.128 8.32-3.648 8.32-8.128c0-4.48-3.712-8.128-8.32-8.128zM762.624 362.752c-9.344 0-16.96 7.616-16.96 16.96s7.616 16.96 16.96 16.96c9.344 0 16.96-7.616 16.96-16.96-0.064-9.344-7.616-16.96-16.96-16.96z" />
<glyph unicode="&#xe90b;" glyph-name="all_inclusive" d="M793.984 678.016c128 0 230.016-104.021 230.016-230.016s-102.016-230.016-230.016-230.016c-61.995 0-120.021 24.021-164.011 68.011l-54.016 48 64 56.021 50.005-41.984c29.995-29.995 66.005-43.989 104.021-43.989 80 0 144 64 144 144s-64 144-144 144c-38.016 0-73.984-13.995-102.016-41.984-60.245-53.077-120.96-105.728-180.011-160l-120.021-105.984c-41.984-41.984-100.011-66.005-162.005-66.005-128 0-230.016 104.021-230.016 230.016s102.016 230.016 230.016 230.016c61.995 0 120.021-24.021 164.011-68.011l54.016-48-66.005-56.021-48 41.984c-29.995 29.995-66.005 43.989-104.021 43.989-80 0-144-64-144-144s64-144 144-144c38.016 0 73.984 13.995 102.016 41.984 60.245 53.077 120.96 105.728 180.011 160l120.021 105.984c41.984 41.984 100.011 66.005 162.005 66.005z" />
<glyph unicode="&#xe90c;" glyph-name="ambulance" d="M227.776 80.448c-61.536 0.256-112.288 50.88-111.36 112.32 0.832 57.184 47.936 109.472 111.296 109.728 64.704 0.32 112.48-52.896 112.384-111.424-0.064-59.296-50.176-112.736-112.32-110.656zM814.688 80.448c-61.536 0.256-112.224 50.88-111.36 112.32 0.832 57.184 47.968 109.472 111.296 109.728 64.704 0.32 112.544-52.896 112.448-111.424-0.16-59.296-50.272-112.736-112.384-110.656zM99.936 671.040c-0.928-0.352-1.888-0.832-2.88-1.216 4.192 0.864 8.544 1.28 12.992 1.28h-10.144zM996.672 330.944c0 3.264-0.256 6.496-0.416 10.048h-0.096v48.224c1.856 24.48-5.888 38.24-26.944 48.704-7.776 3.776-15.808 7.168-24.064 9.824-32.672 10.656-65.472 20.832-98.144 31.584-3.744 1.216-7.936 4.768-9.568 8.384-22.336 49.056-44.224 98.304-66.112 147.552-8.448 19.008-23.040 30.112-43.456 32-13.632 1.28-27.232 2.56-40.864 3.744h-576.864c-4.448 0-8.8-0.416-12.992-1.28-30.784-6.048-54.112-33.344-54.112-65.792v-392.448c7.328-12.544 17.984-18.592 32.608-17.6 2.816 85.952 67.424 142.176 137.12 148.032 36.864 3.072 70.912-6.080 100.768-28.224 40.192-29.76 60.096-70.464 61.952-119.872h289.088c2.4 85.856 68.544 144.032 141.664 148.288 78.016 4.448 156.256-55.648 158.464-147.872 19.872-1.6 32 9.28 32 28.736 0.064 36 0.064 72 0 107.968zM420.96 516.928h-51.392v-51.648h-52.992v51.264h-51.456v52.64h51.392v52.224h52.48v-51.52h51.904v-52.928zM742.592 475.744c-50.24 0-100.512-0.064-150.688 0-13.312 0-16.288 2.976-16.288 16.48 0 34.4 0 68.864 0.064 103.264 0.064 11.68 3.264 14.944 14.912 14.944 42.56 0.064 84.928 0.096 127.488-0.16 3.168-0.064 8.096-2.24 9.312-4.864 19.616-40.352 38.816-80.96 58.112-121.504 1.024-2.144 1.792-4.448 3.328-8.192h-46.24zM645.472 713.92c-1.28 11.328-2.464 22.976-6.336 33.472-6.080 16.576-19.296 25.344-37.216 25.504-17.568 0.096-31.744-7.104-37.824-24.16-4-11.424-5.568-23.872-7.168-36-1.024-8.256 3.744-12.736 12.384-12.64 10.56 0.096 21.056 0.064 31.584 0.064s21.088 0.064 31.584 0c9.472-0.064 13.984 5.056 12.992 13.76zM601.6 791.040h-0.768c-5.472 0-9.92 4.448-9.92 9.888v36.512c0 5.44 4.448 9.888 9.92 9.888h0.768c5.472 0 9.92-4.448 9.92-9.888v-36.512c0-5.376-4.448-9.888-9.92-9.888zM558.944 781.888l-0.352-0.768c-2.208-4.96-8.128-7.168-13.12-4.96l-33.184 15.008c-4.96 2.304-7.232 8.192-4.96 13.152l0.352 0.768c2.24 4.96 8.128 7.168 13.056 4.928l33.28-15.040c4.96-2.24 7.168-8.128 4.928-13.056zM644.032 780.48l0.256-0.768c2.112-5.024 7.872-7.488 12.96-5.312l33.696 13.984c5.024 2.112 7.488 7.872 5.312 12.96l-0.352 0.768c-2.112 5.024-7.872 7.488-12.896 5.312l-33.632-13.984c-5.056-2.048-7.424-7.936-5.312-12.96z" />
<glyph unicode="&#xe90d;" glyph-name="announcement" d="M553.984 320v86.016h-84.011v-86.016h84.011zM553.984 489.984v256h-84.011v-256h84.011zM854.016 873.984c45.995 0 84.011-38.016 84.011-84.011v-512c0-45.995-38.016-86.016-84.011-86.016h-598.016l-169.984-169.984v768c0 45.995 38.016 84.011 84.011 84.011h683.989z" />
<glyph unicode="&#xe90e;" glyph-name="arrowdown" d="M512-32l480 480h-288v512h-384v-512h-288z" />
<glyph unicode="&#xe90f;" glyph-name="arrowdown2" d="M877.248 338.752l-320-320c-24.992-24.992-65.504-24.992-90.496 0l-320 320c-24.992 24.992-24.992 65.504 0 90.496s65.504 24.992 90.496 0l210.752-210.752v613.504c0 35.36 28.64 64 64 64s64-28.64 64-64v-613.504l210.752 210.752c12.48 12.48 28.864 18.752 45.248 18.752s32.768-6.24 45.248-18.752c24.992-24.992 24.992-65.504 0-90.496z" />
<glyph unicode="&#xe910;" glyph-name="arrowdownleft" d="M786.752 813.248l-530.752-530.752v229.504c0 35.36-28.64 64-64 64s-64-28.64-64-64v-384c0-25.888 15.584-49.216 39.52-59.136 7.936-3.296 16.256-4.832 24.48-4.832v-0.032h384c35.36 0 64 28.64 64 64s-28.64 64-64 64h-229.504l530.752 530.752c12.48 12.512 18.752 28.864 18.752 45.248s-6.24 32.768-18.752 45.248c-24.992 24.992-65.504 24.992-90.496 0v0z" />
<glyph unicode="&#xe911;" glyph-name="arrowdownright" d="M146.752 722.752l530.752-530.752h-229.472c-35.36 0-64-28.64-64-64s28.64-64 64-64h384c25.888 0 49.216 15.584 59.136 39.52 3.296 7.936 4.832 16.256 4.832 24.48h0.032v384c0 35.36-28.64 64-64 64s-64-28.64-64-64v-229.504l-530.752 530.752c-12.512 12.512-28.864 18.752-45.248 18.752s-32.768-6.24-45.248-18.752c-24.992-24.992-24.992-65.504 0-90.496z" />
<glyph unicode="&#xe912;" glyph-name="arrowleft" d="M402.752 82.752l-320 320c-24.992 24.992-24.992 65.504 0 90.496l320 320c24.992 24.992 65.504 24.992 90.496 0s24.992-65.504 0-90.496l-210.752-210.752h613.504c35.36 0 64-28.64 64-64s-28.64-64-64-64h-613.504l210.752-210.752c12.48-12.48 18.752-28.864 18.752-45.248s-6.24-32.768-18.752-45.248c-24.992-24.992-65.504-24.992-90.496 0z" />
<glyph unicode="&#xe913;" glyph-name="arrowright" d="M621.248 82.752l320 320c24.992 24.992 24.992 65.504 0 90.496l-320 320c-24.992 24.992-65.504 24.992-90.496 0s-24.992-65.504 0-90.496l210.752-210.752h-613.504c-35.36 0-64-28.64-64-64s28.64-64 64-64h613.504l-210.752-210.752c-12.48-12.48-18.752-28.864-18.752-45.248s6.24-32.768 18.752-45.248c24.992-24.992 65.504-24.992 90.496 0z" />
<glyph unicode="&#xe914;" glyph-name="arrowup" d="M512 928l-480-480h288v-512h384v512h288z" />
<glyph unicode="&#xe915;" glyph-name="arrowup2" d="M877.248 557.248l-320 320c-24.992 24.992-65.504 24.992-90.496 0l-320-320c-24.992-24.992-24.992-65.504 0-90.496s65.504-24.992 90.496 0l210.752 210.752v-613.504c0-35.36 28.64-64 64-64s64 28.64 64 64v613.504l210.752-210.752c12.48-12.48 28.864-18.752 45.248-18.752s32.768 6.24 45.248 18.752c24.992 24.992 24.992 65.504 0 90.496z" />
<glyph unicode="&#xe916;" glyph-name="arrowupleft" d="M877.248 173.248l-530.752 530.752h229.504c35.36 0 64 28.64 64 64s-28.64 64-64 64h-384c-25.888 0-49.216-15.584-59.136-39.52-3.296-7.936-4.832-16.256-4.832-24.48h-0.032v-384c0-35.36 28.64-64 64-64s64 28.64 64 64v229.504l530.752-530.752c12.48-12.512 28.864-18.752 45.248-18.752s32.768 6.24 45.248 18.752c24.992 24.992 24.992 65.504 0 90.496z" />
<glyph unicode="&#xe917;" glyph-name="arrowupright" d="M237.248 82.752l530.752 530.752v-229.504c0-35.36 28.64-64 64-64s64 28.64 64 64v384c0 25.888-15.584 49.216-39.52 59.136-7.936 3.296-16.256 4.832-24.48 4.832v0.032h-384c-35.36 0-64-28.64-64-64s28.64-64 64-64h229.504l-530.752-530.752c-12.512-12.48-18.752-28.864-18.752-45.248s6.24-32.768 18.752-45.248c24.992-24.992 65.504-24.992 90.496 0z" />
<glyph unicode="&#xe918;" glyph-name="atom" d="M82.816 252.608h0.064zM915.968 362.56c-1.664 28.736-25.472 51.456-54.656 51.456-25.472 0-46.912-17.408-52.992-41.088-0.256-0.832-0.448-1.728-0.64-2.688-0.192-1.024-0.384-1.984-0.576-3.008-1.408-9.408-0.576-18.432 2.688-26.688 0.064 0 0.064-0.064 0.064-0.192 2.816-6.976 7.36-13.504 13.568-19.52 15.872-15.296 34.88-18.688 56.064-12.544 0.896 0.256 1.92 0.384 3.072 0.448 10.56 4.416 19.456 12.032 25.344 21.696 0.256 1.536 0.832 3.136 1.792 5.056 4.544 8.768 6.592 17.984 6.272 27.072zM292.096 228.736c-0.064 0.064-0.064 0.064-0.128 0.128-0.128 0.064-0.128 0.192-0.192 0.256-2.816 3.584-5.824 6.656-8.96 9.344-0.192 0.128-0.32 0.192-0.448 0.32-5.632 4.672-11.776 8-18.368 9.856-0.128 0-0.32 0.064-0.448 0.064-9.152 2.56-19.136 2.432-29.824-0.32-21.44-5.376-36.416-24.128-39.68-46.72-0.192-1.344-0.96-3.008-1.984-4.608 0-0.512 0-0.96 0-1.472 0-10.432 2.88-20.16 7.872-28.48 2.304-1.216 4.48-3.072 6.656-5.824 13.824-17.344 32.768-23.232 54.080-18.624 7.040 1.536 13.376 4.096 18.752 7.616 0.448 0.256 0.832 0.512 1.28 0.896 7.232 5.056 12.928 11.904 16.832 20.352 0.064 0.192 0.192 0.384 0.32 0.64 1.152 2.688 2.112 5.44 3.008 8.384 0.192 0.64 0.384 1.216 0.576 1.792 1.088 4.224 1.536 8.64 1.536 13.184 0 12.544-3.968 24-10.88 33.216zM941.696 253.056c-6.336 20.864-17.344 40.256-27.52 59.84-5.056-5.952-11.264-10.944-18.048-14.72 10.816-15.168 22.208-30.272 30.144-46.784 14.656-30.4 3.072-49.984-30.272-55.872-6.784-1.152-13.76-1.536-18.56-2.048-51.072 2.176-97.472 15.808-143.296 31.552-21.568 7.296-42.752 16.128-64.064 24.192-5.184 1.92-8.192 3.904-7.424 10.752 3.52 31.552 6.592 63.040 9.088 94.72 0.768 9.472 4.16 15.296 12.032 20.544 22.080 15.168 43.648 31.040 64.96 47.168 5.696 4.288 9.344 4.672 14.912 0 11.84-10.112 23.936-19.712 36.032-29.184 5.696 10.112 13.632 18.688 23.168 25.024-11.904 11.072-24.192 21.952-37.184 33.536 5.568 4.928 11.072 9.6 16.512 14.528 43.136 38.592 83.968 79.232 114.176 129.28 12.48 20.672 22.592 42.432 22.912 67.392 0.256 23.488-10.56 39.872-31.104 50.24-21.504 10.688-44.672 12.352-67.968 11.84-58.048-1.152-113.216-16.384-167.68-34.432-5.056-1.6-10.176-3.136-14.72-4.544-8.832 35.328-16.64 70.016-26.24 104.192-9.792 34.752-22.912 68.352-42.88 98.752-7.168 10.816-15.616 21.312-24.96 30.4-27.136 25.856-57.28 25.728-84.672-0.128-1.344-1.408-2.88-2.688-4.288-3.648 5.056-2.176 9.728-4.928 14.016-8.32 3.584 4.16 6.784 8.064 10.624 11.392 14.4 12.48 30.4 12.992 43.776-0.128 8.96-8.896 17.024-19.392 22.976-30.464 20.928-38.848 31.36-81.344 40.128-124.288 5.248-26.496 8.96-53.312 13.632-80 1.472-8.32-0.192-12.864-9.024-16.512-28.48-11.84-56.384-25.216-84.864-37.312-4.8-2.048-12.096-2.176-16.96 0-26.176 11.328-51.84 24.192-78.080 35.456-7.936 3.264-9.664 7.296-8.32 14.72 6.976 38.016 13.888 76.096 20.864 114.048 0.128 0.384 0.128 0.64 0.256 0.896-10.304 1.152-19.712 4.672-27.904 9.984-0.256-1.408-0.64-3.008-1.024-4.672-10.496-37.952-20.032-76.16-30.464-115.968-3.136 1.024-7.68 2.688-12.224 4.16-50.048 17.856-100.736 32.832-153.728 39.040-28.48 3.264-57.216 4.48-85.44-3.456-38.656-10.944-54.976-39.36-44.224-78.336 10.24-37.568 31.808-69.12 57.6-97.152 28.032-30.336 58.56-58.496 88.064-87.616 3.328-3.2 6.848-6.080 10.496-9.216-64.896-58.688-131.84-114.304-162.112-199.36 0 0-0.128-0.256-0.128-0.384-0.128-0.256-0.128-0.384-0.256-0.512 0-0.256-0.128-0.384-0.128-0.64-1.728-5.312-7.040-24.576 1.984-41.856v-0.128c22.656-40.512 62.848-39.872 102.336-39.616-3.008 7.040-4.864 14.848-5.248 23.104-19.712-1.024-39.488-2.304-59.072-0.256-19.712 1.984-30.016 16.256-28.864 39.616 2.496 6.080 5.312 19.2 12.352 29.184 16.896 23.616 33.6 47.808 54.336 67.776 34.368 32.832 71.936 62.4 107.968 93.568 4.928 4.288 8.448 4.288 13.888 0.256 27.264-19.84 54.976-38.976 82.368-58.688 3.072-2.176 6.080-6.336 6.464-9.728 3.456-30.784 6.336-61.696 8.832-92.608 0.32-2.88-2.88-7.808-5.632-8.96-22.272-9.408-44.928-18.048-67.264-27.136 4.544-8.96 7.168-19.136 7.168-29.888 0-0.896-0.128-1.792-0.128-2.752 23.936 7.424 47.68 15.616 71.616 23.488 6.912-30.016 13.248-59.84 21.056-89.216 11.776-43.904 26.624-86.784 53.504-124.16 7.552-10.56 16.832-20.416 27.008-28.352 22.784-17.792 47.168-18.176 69.12 0.64 13.888 11.776 26.24 26.496 35.968 42.048 27.584 44.672 41.6 94.592 53.44 145.344 3.968 16.896 7.168 34.048 11.008 52.608 4.096-1.344 7.936-2.496 11.776-3.776 54.336-18.56 109.376-35.072 167.232-36.672 22.464-0.768 45.824 1.728 67.52 7.68 33.472 9.152 48.96 37.248 38.656 70.528zM675.776 417.536v67.136c16.128-10.944 31.36-21.568 48.832-33.408-16.96-11.584-32.128-22.080-48.832-33.728zM667.968 650.624c61.952 25.344 124.736 48.448 192.128 53.952 14.016 1.28 28.736-0.512 42.496-3.904 20.288-5.056 28.032-20.544 23.040-41.152-5.696-23.616-19.84-42.624-34.816-60.8-38.976-47.168-85.76-86.016-133.952-123.264-27.008 19.2-52.992 37.312-78.656 56-3.136 2.24-5.568 7.424-5.952 11.456-3.456 33.088-6.656 66.176-9.408 99.328-0.192 2.688 2.496 7.296 5.12 8.384zM367.68 410.24c-20.032 13.504-39.36 26.624-60.544 40.896 20.928 14.144 40 27.008 60.544 40.896v-81.792zM370.944 548.928c-0.384-3.648-2.88-8.128-5.824-10.24-29.632-20.928-59.648-41.472-90.944-63.040-54.656 42.368-109.12 85.376-150.4 142.016-10.688 14.656-19.072 32-24.448 49.344-6.080 19.2 3.648 32.704 23.040 38.848 21.376 6.784 43.072 4.864 64.512 1.472 65.344-10.368 126.912-33.344 187.52-59.136 2.752-1.152 5.632-6.208 5.44-9.216-2.56-30.016-5.568-60.032-8.896-90.048zM625.6 633.152c1.92-24.448 3.584-46.528 5.312-70.976-24.064 14.144-46.080 26.88-69.504 40.512 21.312 10.048 41.408 19.648 64.192 30.464zM417.152 629.888c19.712-9.536 36.8-17.92 55.872-27.136-20.736-11.712-39.552-22.464-60.608-34.432 1.664 21.312 3.072 40.384 4.736 61.568zM412.288 333.44c21.056-12.032 40-22.72 60.928-34.432-19.328-9.472-36.8-18.048-56.128-27.52-1.6 21.056-3.072 40.384-4.8 61.952zM620.224 220.8c-9.024-64.064-19.2-128-44.544-188.096-6.784-16.128-16.512-31.68-27.264-45.504-6.080-7.68-17.152-11.648-22.336-14.976-18.56 1.024-28.608 8.192-35.072 18.432-10.752 17.408-21.312 35.2-28.608 54.144-20.288 52.224-30.208 107.2-37.632 162.496-3.264 24.32-2.368 24.192 20.032 34.56 21.44 9.856 42.496 20.416 64.064 30.016 4.544 1.856 11.392 2.176 15.936 0.256 29.376-12.608 58.496-26.368 87.872-39.232 6.016-2.752 8.576-5.44 7.552-12.096zM625.728 268.224c-22.464 10.624-42.88 20.288-64.704 30.784 23.68 13.888 45.824 26.752 69.888 41.024-1.728-24.896-3.328-47.36-5.184-71.808zM633.344 399.424c-0.128-4.8-3.648-11.456-7.616-13.76-33.792-20.416-67.968-40.256-102.208-59.648-3.584-1.92-9.984-1.792-13.504 0.128-31.040 17.28-61.952 34.944-92.608 53.12-3.584 2.112-6.848 7.68-6.976 11.712-0.64 20.032-0.256 40.192-0.256 60.288 0 19.84-0.512 39.488 0.256 59.328 0.256 4.288 3.84 10.24 7.424 12.48 30.016 17.728 60.48 34.688 90.432 52.16 5.952 3.392 10.88 3.84 17.216 0.128 32.576-19.392 65.28-38.464 98.24-57.216 7.424-4.16 10.112-9.472 9.984-17.664-0.256-33.728 0.256-67.392-0.384-101.056zM503.104 857.728c0-29.12-23.616-52.736-52.736-52.736s-52.736 23.616-52.736 52.736c0 29.12 23.616 52.736 52.736 52.736s52.736-23.616 52.736-52.736zM567.424 449.984c0-4.544-0.576-8.96-1.536-13.184-0.896-3.52-2.048-6.976-3.584-10.176-0.128-0.256-0.256-0.448-0.32-0.64-3.84-8.128-9.664-15.168-16.768-20.416-0.448-0.32-0.832-0.64-1.28-0.896-9.024-6.4-20.032-10.112-31.936-10.112-20.224 0-37.952 10.816-47.552 26.944-4.992 8.32-7.872 18.048-7.872 28.48 0 0.512 0 0.96 0.064 1.472 0.704 29.952 25.216 53.952 55.36 53.952 5.568 0 11.008-0.832 16.064-2.368 0.128 0 0.32-0.064 0.448-0.128 6.72-2.112 12.992-5.44 18.368-9.792 0.128-0.128 0.256-0.192 0.448-0.32 3.392-2.816 6.464-6.080 9.152-9.6 0.064-0.064 0.064-0.128 0.128-0.192 6.848-9.216 10.816-20.672 10.816-33.024z" />
<glyph unicode="&#xe919;" glyph-name="attachfile" d="M704 704h64v-489.984c0-130.005-104.021-235.989-233.984-235.989s-235.989 105.984-235.989 235.989v532.011c0 93.995 77.995 171.989 171.989 171.989s169.984-77.995 169.984-171.989v-448c0-57.984-48-105.984-105.984-105.984s-107.989 48-107.989 105.984v406.016h64v-406.016c0-24.021 20.011-41.984 43.989-41.984s41.984 18.005 41.984 41.984v448c0 57.984-48 107.989-105.984 107.989s-107.989-50.005-107.989-107.989v-532.011c0-93.995 77.995-171.989 171.989-171.989s169.984 77.995 169.984 171.989v489.984z" />
<glyph unicode="&#xe91a;" glyph-name="attachment" d="M665.824 632.96l-64.96 64.928-324.8-324.736c-53.824-53.792-53.824-141.056 0-194.848s141.056-53.792 194.88 0l389.76 389.696c89.728 89.664 89.728 235.072 0 324.736-89.664 89.696-235.104 89.696-324.768 0l-409.216-409.184c-0.288-0.288-0.608-0.576-0.864-0.832-125.088-125.088-125.088-327.84 0-452.896 125.056-125.056 327.872-125.056 452.992 0 0.288 0.288 0.512 0.576 0.832 0.864l0.032-0.032 279.328 279.296-64.992 64.928-279.328-279.264c-0.288-0.256-0.576-0.576-0.832-0.832-89.088-89.056-233.984-89.056-323.072 0-89.056 89.056-89.056 233.92 0 322.976 0.32 0.288 0.608 0.576 0.896 0.832l-0.032 0.064 409.28 409.152c53.696 53.728 141.152 53.728 194.88 0s53.696-141.152 0-194.848l-389.76-389.696c-17.92-17.92-47.040-17.92-64.96 0-17.888 17.888-17.888 47.040 0 64.928l324.8 324.768z" />
<glyph unicode="&#xe91b;" glyph-name="baby" d="M858.56 345.184c-9.792-41.408-31.648-60.672-73.152-47.424-12.448 4-24.832 8.704-37.568 11.616-9.728 2.112-20.288 3.648-29.952 1.984-19.264-3.232-25.248-16.128-17.76-33.792 23.36-54.848 9.728-102.56-39.008-136.608-76.736-53.856-209.728-50.944-284.224 6.208-36.416 28-52.128 67.392-59.392 110.912-4.16 24.16-6.816 48.48-11.2 72.544-3.264 18.24-10.656 35.776-29.792 41.792-72.256 22.848-96.192 79.808-106.848 147.136-8.864 56.736 0.064 108.288 47.456 145.408 42.304 33.216 91.456 49.6 145.664 41.888 65.184-9.216 117.664-69.568 118.624-135.488 0.32-15.68 3.744-28.224 13.504-40.96 22.432-29.248 18.848-51.872-8.96-76.448-12.544-11.072-25.504-21.856-36.16-34.464-4.608-5.312-6.752-16.32-4.352-22.464 1.792-4.448 13.152-7.616 19.872-7.104 13.824 1.184 27.296 5.312 44.864 9.056-6.4 8.512-11.424 12.032-11.712 16.032-0.608 8.192-1.344 18.496 2.912 24.416 3.328 4.704 15.36 7.52 21.184 5.312 24.896-9.568 40.096-29.344 48.288-54.208 3.776-11.264-1.632-20.384-11.968-24.928-12.448-5.568-25.536-9.632-38.4-14.496-8.032-3.136-15.968-6.464-25.92-10.432 13.152-17.472 29.12-18.432 45.152-17.248 21.952 1.632 41.568 7.84 59.2 18.112 9.28 5.312 17.984 11.84 26.112 19.392 4.768 4.416 9.376 9.12 13.664 14.176 22.72 26.464 40 32.512 72.544 19.808 22.112-8.704 42.816-20.928 63.68-32.448 17.056-9.408 33.024-15.008 47.808 3.232 0.352 0.416 0.928 0.96 1.376 1.088 9.984 2.752 19.904 5.472 29.856 8.256 1.728-9.92 6.816-20.8 4.608-29.856zM511.296 932.096c-266.144 0-482.624-216.48-482.624-482.56s216.48-482.56 482.624-482.56c266.048 0 482.496 216.48 482.496 482.56s-216.416 482.56-482.496 482.56zM511.296 17.216c-238.4 0-432.288 193.984-432.288 432.32 0 238.4 193.888 432.288 432.288 432.288 56.768 0 111.008-11.008 160.832-31.040 0.704-14.912 4.704-28.768 8.608-42.176 4.704-16.384 9.28-32 6.048-45.728-4.448-19.648-22.688-32.768-43.776-48.032-15.52-10.944-31.424-22.432-43.712-37.952-28.224-35.52-28.768-82.432-24.48-115.552 2.464-18.112 6.592-35.744 10.56-52.8 4.192-17.856 8.128-34.656 10.304-51.904 2.912-23.712 2.24-47.808-1.984-71.328-1.184-6.848-2.752-13.632-4.544-20.288h-0.096c-0.448-1.792-0.928-3.52-1.44-5.312 12.608 7.168 24.16 16.992 34.816 29.44 3.072 3.392 6.080 6.848 9.472 10.144 2.112 20.544 1.952 41.28-0.608 61.76-2.368 19.104-6.656 37.696-10.848 55.712-4 16.96-7.776 33.024-9.984 49.408-3.392 26.176-3.328 62.784 16.992 88.416 9.28 11.616 22.432 21.152 36.544 31.232 23.648 16.96 50.432 36.192 57.92 69.12 5.28 22.72-1.088 44.448-6.656 63.648-1.344 4.8-2.72 9.536-3.904 14.144 138.048-72.288 232.384-216.928 232.384-383.168-0.064-238.336-193.984-432.32-432.384-432.32z" />
<glyph unicode="&#xe91c;" glyph-name="backward" d="M512-64c282.784 0 512 229.216 512 512s-229.216 512-512 512-512-229.216-512-512 229.216-512 512-512zM512 864c229.76 0 416-186.24 416-416s-186.24-416-416-416-416 186.24-416 416 186.24 416 416 416zM704 288l-224 160 224 160zM448 288l-224 160 224 160z" />
<glyph unicode="&#xe91d;" glyph-name="backward2" d="M576 800v-320l320 320v-704l-320 320v-320l-352 352z" />
<glyph unicode="&#xe91e;" glyph-name="barcode" d="M0 832h128v-640h-128zM192 832h64v-640h-64zM320 832h64v-640h-64zM512 832h64v-640h-64zM768 832h64v-640h-64zM960 832h64v-640h-64zM640 832h32v-640h-32zM448 832h32v-640h-32zM864 832h32v-640h-32zM0 128h64v-64h-64zM192 128h64v-64h-64zM320 128h64v-64h-64zM640 128h64v-64h-64zM960 128h64v-64h-64zM768 128h128v-64h-128zM448 128h128v-64h-128z" />
<glyph unicode="&#xe91f;" glyph-name="bed" d="M73.28 316.832c-40.448 0-73.28-32.736-73.28-73.216 0-40.448 32.8-73.248 73.28-73.248s73.216 32.8 73.216 73.248c0 40.48-32.768 73.216-73.216 73.216zM73.728 202.464c-22.464 0-40.672 18.208-40.672 40.672s18.208 40.672 40.672 40.672 40.672-18.208 40.672-40.672-18.208-40.672-40.672-40.672zM109.792 277.248c0-17.6-14.4-32-32-32h-9.408c-17.6 0-32 14.4-32 32v539.616c0 17.6 14.4 32 32 32h9.376c17.6 0 32-14.4 32-32v-539.616zM951.808 315.328c-40.48 0-73.248-32.768-73.248-73.248 0-40.448 32.768-73.216 73.248-73.216 40.416 0 73.248 32.768 73.248 73.216s-32.832 73.248-73.248 73.248zM952.288 200.896c-22.464 0-40.672 18.208-40.672 40.672s18.208 40.672 40.672 40.672c22.432 0 40.672-18.208 40.672-40.672s-18.24-40.672-40.672-40.672zM987.776 274.784c0-17.6-14.4-32-32-32h-9.408c-17.6 0-32 14.4-32 32v350.272c0 17.6 14.4 32 32 32h9.408c17.6 0 32-14.4 32-32v-350.272zM94.496 501.952h825.408v-107.424h-825.408v107.424zM394.464 705.088c0-39.358-31.906-71.264-71.264-71.264s-71.264 31.906-71.264 71.264c0 39.358 31.906 71.264 71.264 71.264s71.264-31.906 71.264-71.264zM419.904 543.008h418.080c0 0 15.584 28.224-47.872 58.912-88.832 42.976-309.344 83.072-345.696 58.496-36.128-24.448-24.512-117.408-24.512-117.408zM164.832 546.464c0 0.736 0 1.472 0 2.208-0.064 18.976-0.928 37.12 0.352 55.072 1.12 16.128 12.032 24.192 27.84 20.896 44.672-9.376 89.28-19.2 133.6-30.016 25.344-6.208 33.056-18.688 32.704-48.16-64.128 0-128.288 0-194.496 0z" />
<glyph unicode="&#xe920;" glyph-name="bell" d="M1025.504 160c0 288-256 224-256 448 0 18.56-1.792 34.432-5.056 47.936-16.832 113.024-92.16 203.712-189.76 231.36 0.864 3.936 1.312 8.032 1.312 12.224 0 33.28-28.8 60.512-64 60.512s-64-27.232-64-60.512c0-4.192 0.448-8.256 1.312-12.224-109.472-31.008-190.912-141.312-193.248-273.44-0.032-1.92-0.064-3.872-0.064-5.856 0-224-256-160-256-448 0-76.224 170.592-140 398.976-156.096 21.536-40.416 64.064-67.904 113.024-67.904s91.52 27.52 113.024 67.904c228.384 16.096 398.976 79.84 398.976 156.096 0 0.224-0.032 0.448-0.032 0.672l1.536-0.672zM826.24 105.888c-54.24-14.464-118.144-24.864-186.784-30.656-5.696 65.408-60.576 116.736-127.488 116.736s-121.76-51.328-127.488-116.736c-68.608 5.76-132.544 16.192-186.784 30.656-74.624 19.904-110.304 42.176-123.36 54.112 13.056 11.904 48.736 34.176 123.36 54.112 86.784 23.168 198.368 35.904 314.24 35.904s227.488-12.736 314.24-35.904c74.624-19.904 110.304-42.176 123.36-54.112-13.056-11.904-48.736-34.176-123.36-54.112z" />
<glyph unicode="&#xe921;" glyph-name="bigmachine" d="M814.784 432.704c0-96.704-45.056-182.784-115.2-238.656-12.48 26.112-24.96 52.16-37.248 78.336-1.344 2.816-1.536 6.272-1.6 9.344-0.256 8.448 0.064 16.96-0.128 25.344-0.512 23.616 2.432 45.824 11.072 68.864 36.544 97.856-25.856 204.288-128.896 223.232-95.744 17.728-186.304-48.192-199.040-144.32-4.224-32.128 0.512-62.592 13.12-92.16 1.664-3.968 2.624-8.704 2.624-13.056 0.256-24.384 4.032-49.6-1.216-72.896-5.184-23.104-19.648-44.16-30.080-66.176-2.56-5.44-5.248-10.816-7.872-16.256-70.016 55.808-114.88 141.824-114.88 238.4 0 168.256 136.448 304.64 304.704 304.64s304.64-136.384 304.64-304.64zM734.656 79.232c-149.888 0-298.88 0-449.088 0 1.536 3.648 2.688 6.592 4.032 9.344 28.032 58.752 56.32 117.504 84.16 176.448 3.008 6.4 6.336 9.024 13.76 8.96 82.176-0.256 164.352-0.192 246.656-0.064 4.608 0 8.32-0.064 10.88-5.504 29.312-61.824 58.944-123.52 88.448-185.28 0.448-0.768 0.576-1.792 1.152-3.904zM284.608 60.096c150.656 0 300.288 0 451.84 0-0.704-14.656 0-29.376-2.304-43.584-2.432-14.784-16.704-23.872-33.536-23.936-63.36 0-126.656 0-190.080 0-62.656 0-125.376 0-188.032 0-24.256 0-37.504 12.928-37.824 36.992-0.192 9.984-0.064 19.968-0.064 30.528zM641.664 293.312c-87.936 0-174.976 0-262.464 0-0.384 2.176-0.96 3.968-0.96 5.888-0.064 23.744-0.32 47.424 0 71.168 0.32 22.4 13.824 35.84 35.968 35.904 64.704 0.128 129.344 0.064 194.048 0 17.792 0 32.192-11.456 33.024-29.12 1.408-27.52 0.384-55.168 0.384-83.84zM979.264 430.72c0-142.848-64.128-270.784-165.184-356.416-15.488 0-31.104 0-46.656-0.064-6.848-0.128-10.304 2.112-13.184 8.384-11.968 25.856-24.512 51.52-37.312 78.208 37.568 28.928 68.032 63.104 91.584 103.488 115.968 199.616-0.064 459.264-225.856 505.088-187.136 37.952-367.872-78.656-404.8-265.472-26.368-133.44 15.552-245.952 119.168-334.72 5.248-4.416 7.168-7.36 3.712-14.336-12.288-24.32-23.872-49.024-35.392-73.664-2.432-5.184-5.376-6.912-11.008-6.912-14.72 0.064-29.632 0.064-44.352 0.064-101.12 85.632-165.248 213.568-165.248 356.416 0 160.064 80.512 301.376 203.328 385.6 22.592 14.912 46.912 28.544 73.152 41.024 0.448 0.192 1.024 0.448 1.472 0.704 32.832 15.488 67.264 25.856 102.72 31.872 0.768 0.192 1.536 0.32 2.304 0.384 16.448 2.752 33.152 4.608 50.112 5.696 40.576 2.624 79.488 0.768 116.864-5.376 1.28-0.192 2.432-0.384 3.584-0.704 216.896-40.384 380.992-230.656 380.992-459.264z" />
<glyph unicode="&#xe922;" glyph-name="bin" d="M128 640v-640c0-35.2 28.8-64 64-64h576c35.2 0 64 28.8 64 64v640h-704zM320 64h-64v448h64v-448zM448 64h-64v448h64v-448zM576 64h-64v448h64v-448zM704 64h-64v448h64v-448zM848 832h-208v80c0 26.4-21.6 48-48 48h-224c-26.4 0-48-21.6-48-48v-80h-208c-26.4 0-48-21.6-48-48v-80h832v80c0 26.4-21.6 48-48 48zM576 832h-192v63.2h192v-63.2z" />
<glyph unicode="&#xe923;" glyph-name="bin2" d="M192-64h640l64 704h-768zM640 832v128h-256v-128h-320v-192l64 64h768l64-64v192h-320zM576 832h-128v64h128v-64z" />
<glyph unicode="&#xe924;" glyph-name="bioanalysis" d="M400.992 727.2c31.936 0 57.44-25.504 57.44-57.504 0-31.744-25.856-57.792-57.408-57.664-31.68 0.16-57.504 25.92-57.664 57.664-0.256 31.552 25.792 57.504 57.6 57.504zM163.136 448.32c0.096 31.424 26.464 56.992 58.272 56.48 31.424-0.512 56.512-25.792 56.736-57.184 0.096-32.192-26.208-58.272-58.56-57.76-32.096 0.448-56.512 25.76-56.416 58.464zM495.936 395.68c32.672 0.16 57.952-25.408 57.76-58.048-0.16-30.88-26.304-56.896-57.152-56.928-31.552-0.096-57.92 26.112-57.792 57.504 0 32.064 25.152 57.408 57.184 57.504zM352.576 347.808c0 13.984-0.192 28 0.064 41.92 0.352 18.24 10.752 29.536 26.88 29.856 16.384 0.32 27.584-10.496 27.84-28.736 0.416-30.528 0.416-60.992-0.32-91.488-0.32-12.64-8.8-21.504-20.384-24.224-11.84-2.816-23.712 1.344-29.504 11.776-2.88 5.216-4.192 11.776-4.448 17.824-0.672 14.4-0.192 28.768-0.16 43.072v0zM553.632 474.816c15.040 0 30.208 0.32 45.312-0.096 15.36-0.352 27.584-12.608 27.744-27.2 0.096-14.688-11.776-27.648-27.232-27.84-30.56-0.448-61.184-0.448-91.808 0-15.968 0.192-27.488 13.312-26.688 29.024 0.768 15.68 12.192 26.016 28.48 26.016 14.752-0.096 29.504-0.064 44.224-0.064-0.064 0.064-0.064 0.064-0.064 0.16zM235.168 530.080c-14.688 0-29.376-0.192-44.096 0-17.312 0.256-29.28 11.872-29.184 27.968 0.064 15.008 12.384 26.976 28.864 27.2 29.44 0.32 58.88 0.352 88.32 0 17.152-0.192 28.512-12.288 28.16-28.672-0.352-15.52-12.288-26.432-29.024-26.464-14.4 0-28.736 0-43.072 0v0zM297.28 245.824c-3.584 1.856-11.104 4.288-16.8 8.96-21.44 17.472-42.304 35.52-63.232 53.6-14.080 12.128-16.448 28.608-6.208 40.864 11.104 13.248 27.136 13.888 41.888 1.344 21.952-18.592 43.872-37.184 65.472-56.128 10.4-9.12 12.8-20.384 8-31.904-4.256-10.080-14.24-16.736-29.12-16.736zM415.904 526.496c-0.448-1.344-1.024-6.56-3.776-9.92-20.576-24.896-41.376-49.728-62.72-73.888-9.28-10.496-25.536-10.816-36.192-2.496-10.816 8.384-14.4 23.616-6.464 35.328 7.328 10.912 16.448 20.64 24.928 30.72 11.776 14.080 23.552 28.256 35.776 41.888 9.312 10.336 20.544 12.864 31.904 8.128 10.24-4.256 16.032-13.472 16.544-29.76zM566.112 618.848c0.192-19.040-13.92-33.472-32.928-33.632-19.104-0.096-33.44 14.016-33.632 33.088-0.096 18.016 14.752 33.216 32.512 33.44 18.88 0.192 33.888-14.272 34.048-32.864zM296.096 651.712c0.064-18.88-14.592-33.472-33.472-33.376-18.688 0.16-32.864 14.080-33.088 32.576-0.192 18.752 14.336 33.856 32.928 34.112 18.688 0.192 33.632-14.592 33.632-33.28zM484.672 491.84c-17.92-0.064-33.696 14.272-33.952 30.88-0.352 19.808 15.040 36.032 33.888 35.776 18.176-0.16 32.768-14.752 32.864-32.96 0.192-19.392-13.632-33.6-32.832-33.696zM724.64 378.432c42.24-21.504 83.968-42.752 125.76-64.096 38.144-19.52 76.288-39.072 114.432-58.688 34.24-17.664 47.456-54.688 30.976-86.784-16.576-32.416-54.112-43.84-88.32-26.432-75.968 38.752-151.872 77.76-227.744 116.8-4.256 2.144-7.936 5.536-11.328 8-133.696-171.008-361.12-178.624-502.976-71.616-143.424 108.192-186.272 303.040-100.032 461.664 84.384 155.2 273.056 225.216 440.224 163.584 166.816-61.536 275.52-245.952 219.040-442.432zM662.72 573.792c-48.448 153.696-215.36 241.856-367.424 194.112-160.672-50.432-248.768-216.64-196.96-375.808 51.392-157.856 216.16-235.456 363.072-193.472 164.352 46.848 251.904 221.344 201.312 375.2z" />
<glyph unicode="&#xe925;" glyph-name="blocked" d="M874.048 810.048c-96.704 96.704-225.28 149.952-362.048 149.952s-265.344-53.248-362.048-149.952c-96.704-96.704-149.952-225.28-149.952-362.048s53.248-265.344 149.952-362.048c96.704-96.704 225.28-149.952 362.048-149.952s265.344 53.248 362.048 149.952c96.704 96.704 149.952 225.28 149.952 362.048s-53.248 265.344-149.952 362.048zM896 448c0-82.816-26.368-159.584-71.104-222.368l-535.264 535.264c62.784 44.768 139.552 71.104 222.368 71.104 211.744 0 384-172.256 384-384zM128 448c0 82.816 26.368 159.584 71.104 222.368l535.264-535.264c-62.784-44.768-139.552-71.104-222.368-71.104-211.744 0-384 172.256-384 384z" />
<glyph unicode="&#xe926;" glyph-name="bloodbag" d="M796.768 780.032c-0.064 42.944-29.792 71.328-73.12 71.328h-120.64c-13.12 61.6-43.84 91.328-92.736 91.296-47.68-0.16-78.272-30.112-91.488-90.464-3.904-0.256-8.096-0.576-12.352-0.576-36.096-0.064-72.288 0.256-108.544-0.16-42.912-0.448-70.656-28.832-70.816-71.84-0.16-31.84 0-63.808 0-95.584 0-96.576-0.256-193.088 0.096-289.536 0.192-56.384 18.624-106.592 55.808-149.152 46.272-52.896 105.472-78.4 175.616-79.264 9.728 0 19.36 0 28.48 0 2.144-18.272 3.136-34.656 6.208-50.752 14.432-75.936 77.056-126.272 153.6-124.352 17.568 0.448 26.976 11.104 24.416 27.296-1.888 11.68-9.152 17.312-24.512 17.76-21.344 0.704-42.176 3.776-60.576 15.296-43.008 26.72-51.36 69.312-52.832 117.248 14.912 0 27.744-0.192 40.608 0.064 117.44 3.008 213.408 93.856 221.632 210.848 2.112 29.6 1.216 59.456 1.216 89.184 0.096 103.776 0.256 207.552-0.096 311.36zM509.376 897.792c25.408 0.96 45.824-18.496 46.272-45.632h-88.896c-1.376 24.832 17.568 44.64 42.592 45.632zM751.776 398.080c-0.352-93.376-62.304-168.544-154.272-184.16-26.176-4.416-53.248-3.008-79.968-2.816-33.024 0.32-66.656-1.216-99.008 4.16-84.896 14.24-147.808 90.88-148.384 177.088-0.192 41.92-0.192 83.968-0.192 125.952v63.296c0 10.56 0 21.088-0.096 31.648 0 8.64-0.16 17.344 0.608 25.92 2.912 34.976 1.888 70.304 1.888 105.376v0.448c0 13.888 0.064 28 0.416 42.176 0.352 12.64 10.56 19.808 25.536 19.872 49.088 0.16 98.208 0.16 147.296 0.16h272.544c23.808 0 33.472-9.632 33.6-33.632 0.064-9.568 0-19.104-0.096-28.576-0.096-8.96-0.096-18.080 0.096-26.944 0.064-3.392 0.096-6.976 0.32-10.432 0-1.856-0.096-3.488-0.32-4.96v-118.432c0.064-62.048 0.256-124.064 0.064-186.112zM692.672 768.096h-363.968v-85.44h22.208c20.384 0 40.608 0.096 61.024 0h50.784v-15.264c0.768-9.536 0-19.712 0-31.424h-133.632v-89.248h132.352v-45.568h-132.352v-89.184h131.392v-46.848h-130.976c-7.264-56.256 21.184-89.6 75.424-89.76 71.328-0.096 142.656-0.096 213.92 0 46.592 0.16 75.072 28.32 75.072 74.656 0.16 135.104 0 270.176 0 405.248 0 4.256-0.768 8.256-1.216 12.864zM587.36 480.704c-39.52-2.752-72.768 22.88-79.52 61.12-3.424 19.456 0.096 37.44 11.264 53.44 12.8 18.528 26.688 36.256 40.096 54.368 7.424 10.080 15.104 20.16 17.504 32.864 0.096 1.184 1.376 2.56 2.464 2.656 1.024 0.16 2.72-1.088 2.976-1.984 5.536-22.88 22.72-38.336 35.84-56.512 9.664-13.216 19.2-26.56 27.808-40.352 5.952-9.792 8.768-20.928 7.936-30.912-0.256-39.36-30.048-72.192-66.368-74.688zM751.808 744.96v-26.944c-0.256 8.96-0.192 17.984-0.096 26.944h0.096z" />
<glyph unicode="&#xe927;" glyph-name="bloodorsomethingliquid" d="M636.16 367.744c-32.896 52.928-69.248 103.872-106.112 154.304-50.24 69.248-115.904 128.448-136.96 216.192-0.896 3.456-7.744 8.064-11.008 7.552-3.776-0.64-8.896-5.952-9.792-9.92-9.088-48.896-38.080-87.104-66.56-125.696-51.072-69.312-104.256-137.216-153.28-208-42.304-61.056-56.064-129.792-43.008-204.032 25.728-146.24 152.64-244.288 303.872-233.664 138.88 9.728 252.736 134.912 253.632 284.992 2.88 38.336-7.744 80.832-30.784 118.272zM331.328 40.064c-4.48-9.28-13.568-14.592-23.168-14.592-3.776 0-7.552 0.832-11.136 2.56-159.296 76.608-159.488 257.344-159.488 265.92 0.192 14.080 11.648 25.344 25.728 25.344 0.192 0 0.32 0 0.32 0 14.272-0.192 25.536-11.712 25.344-25.856 0-3.328 0.192-42.368 16.448-88.512 16.448-46.144 49.024-99.328 113.856-130.688 12.928-6.080 18.24-21.504 12.096-34.176zM920.512 476.672c-10.816 54.72-36.608 102.592-69.248 146.432-43.904 59.072-90.752 115.968-135.36 174.656-28.032 36.864-55.296 74.56-64.576 121.792-0.96 4.8-7.744 8.576-11.84 12.8-3.968-4.608-9.088-8.576-11.648-13.824-14.976-30.912-25.664-64.576-44.736-92.544-34.816-51.072-73.984-99.264-112.512-147.584-9.856-12.352-9.344-20.16 0-32 49.216-62.528 98.752-124.8 146.048-188.736 40.576-54.912 74.624-114.24 78.336-184.448 2.112-39.808-3.328-80-5.44-121.28 149.568 19.776 260.672 174.784 230.976 324.736z" />
<glyph unicode="&#xe928;" glyph-name="bodyrev" d="M595.36 866.112c-0.416-45.12-38.496-82.336-83.456-81.664-44.288 0.672-83.872 42.4-83.264 87.744 0.704 44.544 36.512 79.872 80.544 79.52 47.040-0.352 86.592-39.616 86.176-85.6zM772.416 462.688c-11.008 23.040-25.248 44.48-37.376 67.008-28.736 53.184-56.416 106.816-85.344 159.68-21.184 38.72-51.008 63.328-99.072 59.968-12.8-0.928-25.696-1.344-38.592-1.6-12.896 0.256-25.792 0.672-38.592 1.6-47.968 3.392-77.824-21.248-99.008-59.968-11.584-21.088-22.944-42.304-34.208-63.584-32.448-3.328-57.792-30.784-57.792-64.064 0-10.912 2.752-21.248 7.584-30.304-0.32-0.512-0.672-1.12-0.928-1.728-12.128-22.528-26.432-43.968-37.376-67.008-6.976-14.784-15.424-30.656-5.888-48.48 11.264-21.088 39.328-26.56 53.824-7.936 11.712 14.912 20.064 32.608 28.864 49.568 7.232 13.824 14.336 27.712 21.408 41.632 34.048 1.632 61.28 29.856 61.28 64.32 0 12.96-3.84 24.992-10.4 35.008 0.32 0.608 0.672 1.28 0.928 1.856 2.112 4.096 4.672 7.84 7.072 11.712 1.184-0.096 2.496-0.16 3.68-0.256 1.088-7.264 2.912-14.528 2.912-21.696 0.064-49.056-1.088-98.112-1.088-147.136-0.16-16.8-0.256-33.632-0.512-50.432 0-21.44 0-42.944 0-64.416-0.064-102.496-0.096-205.056-0.192-307.552 0-29.632 16.992-49.088 42.656-49.216 24.48-0.096 44.384 22.176 44.48 50.080 0.096 101.312 0.064 202.496 0.192 303.712 0 8.128 1.088 16.32 2.816 24.224 0.672 3.008 4.416 7.328 6.976 7.424 0.416 0.064 0.928 0 1.344-0.16 0.448 0.16 0.96 0.192 1.344 0.16 2.496-0.096 6.304-4.416 6.976-7.424 1.728-7.84 2.816-16.032 2.816-24.224 0.064-23.904 0.064-47.968 0.096-71.936-11.968-11.712-19.456-28.064-19.456-46.080s7.488-34.368 19.52-46.016c0-46.528 0-92.992 0.096-139.616 0-27.904 20.032-50.112 44.448-50.080 25.696 0.096 42.656 19.552 42.656 49.216 0 45.984-0.064 91.968-0.064 137.92 13.504 11.776 22.112 29.12 22.112 48.544s-8.64 36.928-22.272 48.576c0 24.16-0.064 48.32-0.064 72.448 0 21.44 0 42.944 0 64.416-0.16 16.8-0.352 33.696-0.512 50.432 0 49.056-1.12 98.112-1.024 147.136 0 7.232 1.856 14.432 2.912 21.696 1.184 0.096 2.464 0.16 3.68 0.256 2.368-3.904 4.96-7.616 7.072-11.712 24.48-47.616 48.576-95.296 73.28-142.784 8.864-16.96 17.216-34.656 28.864-49.568 14.496-18.592 42.496-13.152 53.824 7.936 9.536 17.824 1.024 33.696-5.888 48.48zM386.496 561.76c0-15.52-8.96-28.992-21.92-35.52-5.376-2.656-11.424-4.256-17.856-4.256-21.952 0-39.776 17.824-39.776 39.776 0 0.576 0 1.088 0.064 1.6 0.512 12.48 6.752 23.488 16.192 30.4 6.592 4.864 14.752 7.776 23.552 7.776 19.808 0 36.192-14.496 39.264-33.472 0.352-2.048 0.512-4.16 0.512-6.304zM568.128 628.832c-21.92 0-39.776 17.824-39.776 39.776 0 21.92 17.92 39.744 39.776 39.744 21.952 0 39.776-17.824 39.776-39.744 0-21.952-17.856-39.776-39.776-39.776zM568.128 245.088c21.952 0 39.776-17.856 39.776-39.776s-17.856-39.68-39.776-39.68c-21.92 0-39.776 17.824-39.776 39.68-0.064 21.92 17.856 39.776 39.776 39.776z" />
<glyph unicode="&#xe929;" glyph-name="bones" d="M406.592 759.904c9.984-4.256 21.248-6.912 29.696-13.312 46.656-34.912 92.224-34.4 138.816 0.512 8.192 6.24 19.456 8.544 29.28 12.608 1.984-2.144 3.904-4.352 6.048-6.56-8-10.816-14.336-23.36-24.256-32.064-14.4-12.224-25.44-23.808-24.128-45.056 0.928-15.968-11.84-25.184-27.040-26.208-19.52-1.344-38.976-1.344-58.528-0.096-17.216 1.088-29.632 11.264-28.32 28.992 1.28 18.592-8.128 28.32-20.16 39.328-10.752 9.92-19.136 22.784-28.48 34.368 2.368 2.464 4.704 4.928 7.072 7.52zM407.136 859.232c12.288-6.24 25.408-11.264 36.672-19.104 37.536-25.952 85.44-25.952 122.944 0.16 11.328 7.68 24.416 12.864 38.976 20.288 4.16-22.72-9.664-31.424-19.36-40.096-13.664-12.8-25.664-23.616-24.32-45.376 1.024-16.448-12.032-25.664-28.608-26.176-18.88-0.832-37.728-0.832-56.64 0-18.112 0.768-29.856 11.712-28.768 30.208 0.928 16.96-6.912 26.432-18.496 36.352-11.936 10.24-25.344 20.416-27.072 37.792 1.6 2.048 3.136 4.096 4.704 5.952zM923.552 622.496c-56.064 83.456-239.776 128.512-321.536 50.848-11.008-10.432-21.6-21.408-32.768-31.392-37.984-33.984-84.288-34.816-123.072-1.792-13.472 11.52-25.792 24.256-38.816 36.192-77.92 71.488-281.504 56.576-317.088-56.928-1.088-3.136-2.144-6.464-3.072-10.176-1.792-7.36-3.936-14.848-4.544-22.432-2.656-31.552-3.168-62.976 23.040-86.848 11.424-10.24 22.848-14.944 35.68-0.832 39.584 42.944 90.272 28.576 124.672-0.704 58.976-50.112 66.304-130.88 18.752-191.552 0-0.16-0.096-0.16-0.096-0.16-10.752-13.632-23.616-26.72-30.144-42.176-5.12-11.776-7.072-30.112-1.184-40.608 27.552-48.8 101.696-68.032 150.848-41.568 24.992 13.568 49.568 27.84 74.592 41.312 18.336 9.824 37.376 9.664 55.872-0.256 23.648-12.864 47.776-25.088 70.72-39.488 36.288-22.688 71.52-23.36 106.944 1.184 11.424 7.84 23.456 14.912 34.208 23.616 22.272 18.176 25.536 35.52 10.176 60-8.448 13.472-18.784 25.664-28.512 38.304-2.656 3.232-5.184 6.592-7.616 10.048-46.784 65.792-20.384 164.928 52.672 198.56 34.752 16.064 67.136 14.016 96.096-13.504 16.896-16.064 25.504-15.936 41.024 1.12 38.048 42.56 36.864 84.224 13.216 119.232zM430.496 246.72c-9.664-14.528-29.888-20.288-46.272-21.824-23.040-1.792-40.352 7.616-53.568 25.28-22.464 30.368 15.552 50.336 41.984 51.968 22.176 1.28 76.352-27.232 57.856-55.456zM516.96 278.688h-34.88c0 0-66.048-2.912-100.416 110.336 0 0-11.456 31.584-32.864 60.256 0 0-34.464 73.216 14.272 86.080 36.544 9.664 55.968-18.624 68.672-48.224 6.208-14.656 10.304-30.464 17.728-44.384 4.192-7.776 9.664-14.528 13.568-22.688 2.72-6.048 4.544-31.072 7.68-33.792 0 0 24.576-21.696 28.768-25.152 4.256 3.424 28.928 25.152 28.928 25.152 2.912 2.56 4.512 26.304 6.848 31.936 3.264 7.616 8.288 13.76 12.352 20.672 8 13.568 10.56 28.768 16.32 43.52 12.032 30.656 34.496 62.912 71.936 52.992 48.736-12.864 14.4-86.080 14.4-86.080-21.44-28.672-33.024-60.256-33.024-60.256-34.368-113.248-100.288-110.4-100.288-110.4zM685.632 257.44c-5.632-16.224-22.88-29.856-39.328-33.792-17.312-4.192-39.584 6.080-54.624 14.016-41.792 22.112 26.112 65.12 51.136 63.296 13.312-0.832 28.256-4.256 37.824-14.432 5.696-6.208 7.84-20.64 4.96-29.088zM935.52 32.608h-81.984c-1.28 25.184-2.656 49.568-3.904 73.888-1.44 28.32-1.728 56.736-4.448 84.928-4.032 40.864-19.648 77.568-44.384 110.592-12.864 17.056-25.504 34.88-34.112 54.272-18.88 42.752-0.832 92.256 40.032 115.552 23.904 13.888 53.248 3.424 63.040-22.272 11.776-30.4 21.248-35.776 53.184-29.44 21.824 4.288 44.608 11.36 60.064-11.712 16.32-24.512 16.8-51.36 3.392-77.312-27.584-53.184-45.984-108.896-48.896-169.12-1.536-35.136-1.376-70.464-2.048-105.824-0.064-7.328 0.064-14.656 0.064-23.552zM173.056 33.088h-86.464c0 22.528-0.352 44.544 0.096 66.368 1.856 82.528-11.712 161.728-52.288 234.848-10.656 19.104-9.824 40.192-2.752 60.736 8 23.296 25.664 33.472 50.176 29.44 8.128-1.28 15.968-3.776 24.128-5.12 24.224-4.032 39.264 2.464 44.128 26.624 7.488 36.704 54.432 38.912 75.712 19.648 39.584-35.392 48.32-76.544 23.104-123.584-4.192-7.68-8.288-15.872-14.176-22.432-47.68-52.032-61.344-115.616-61.536-183.456-0.256-33.792-0.096-67.68-0.096-103.072z" />
<glyph unicode="&#xe92a;" glyph-name="bonessurgeon" d="M719.296 207.296c0 0-46.016 121.472-46.016 166.656 0 12.864 1.536 27.072 3.648 40.96-55.936-3.008-107.392 22.208-152.128 56.256 93.504 17.984 187.648 36.16 307.328 59.2-6.080-7.36-11.84-15.36-17.472-23.488 12.288-0.96 25.6-2.624 39.808-4.928-20.992 133.696-83.456 260.16-160.704 388.48-73.472-49.088-135.488-93.44-201.216-12.928-8.448 10.368-51.2 10.624-59.584 0.512-68.608-83.328-134.528-32.576-209.216 11.008-95.296-189.248-209.472-364.48-144.192-584.832 14.272-48.192 46.912-90.88 71.168-136.192 40.128 34.496 83.712 65.92 119.744 104.192 39.872 42.368 72.384 91.392 109.696 136.256 2.752 3.328 17.728-3.328 36.544-7.36-23.488-19.136-40.512-32.96-59.968-48.832 20.864-13.888 36.736-24.448 57.408-38.208-21.696-15.040-38.272-26.688-59.072-41.152 19.072-13.76 36.736-26.432 56.384-40.576-20.224-16.512-35.584-29.12-50.944-41.664 0.832-9.792 1.728-19.712 2.56-29.504 65.216 0 130.496 0 195.648 0 1.088 9.024 2.24 17.984 3.328 27.008-16.512 14.976-32.96 29.952-51.2 46.464 20.544 13.312 37.056 24 56.192 36.352-20.928 14.848-37.248 26.432-59.456 42.176 21.504 15.168 38.656 27.328 55.552 39.168-19.648 18.56-34.624 32.832-49.536 46.912 5.824 6.528 11.712 12.992 17.6 19.456 30.336-29.056 64.768-55.040 89.792-88.064 27.136-35.968 40.192-83.392 69.696-116.736 10.432-11.776 26.624-23.296 43.328-31.104l-14.72 24.512zM181.632 430.848c-37.504 17.664-61.632 63.744-98.112 103.808 119.424-24.512 214.144-43.968 313.92-64.384-60.992-43.904-133.44-78.144-215.808-39.424zM146.624 626.176c86.464-16.192 168.832-31.616 248.832-46.592-66.24-80.192-183.040-60.544-248.832 46.592zM247.040 653.184c-30.976 6.848-53.632 51.2-94.080 93.248 105.856-26.88 179.136-45.44 252.352-64 1.472-8.512 2.88-17.088 4.224-25.6-54.464-2.496-111.104-15.104-162.496-3.648zM504.448 679.616c85.696 21.504 158.72 39.872 263.36 66.112-39.872-41.792-61.12-80.896-92.928-93.888-56.192-23.104-116.992-22.592-170.432 27.776zM766.848 624.768c-34.176-98.944-138.88-124.544-251.52-47.36 91.52 17.28 174.144 32.832 251.52 47.36zM978.816 131.584c-1.664 10.816-8.384 23.488-16.896 30.080-31.68 24.768-70.72 34.112-103.68 47.488-23.296-35.84-45.12-69.312-66.88-102.784-2.24 0-4.416 0-6.656 0-21.952 33.856-43.968 67.712-67.584 104.128-28.864-12.608-60.8-26.112-92.288-40.64-17.088-7.808-26.304-22.592-28.736-40.96-6.784-51.648-13.12-103.36-19.84-156.544 142.4 0 281.792 0 423.616 0-6.848 54.080-12.928 106.816-21.056 159.232zM908.608 63.872c-19.712 0-38.656 0-58.624 0 0 5.632 0 10.752 0 16.448 19.776 0 39.168 0 58.624 0 0-5.952 0-10.752 0-16.448zM786.816 407.68c25.344-0.576 49.984-6.848 72.512-20.288 9.536-5.696 18.496-12.48 27.968-18.432 3.136-1.92 3.456-4.48 3.648-7.424 0.896-15.744-2.112-30.784-7.552-45.44-9.6-25.728-24.576-47.68-47.36-63.552-32.96-22.912-72.448-20.672-102.912 5.76-25.344 22.016-40.704 49.728-46.016 82.752-1.28 7.744-3.712 16.064 0.96 23.552 2.048 3.264 4.928 6.080 7.936 8.576 25.6 21.44 52.992 34.112 90.816 34.496zM738.816 317.696c0.384 3.2 0.704 5.952 1.152 8.704 1.6 10.368 6.784 15.808 16.896 18.048 22.208 4.928 44.352 4.992 66.624 0 9.28-2.048 14.656-7.616 16.384-16.832 0.576-3.136 0.96-6.4 1.472-9.92 6.784 0 13.376 0.128 19.968-0.064 2.88-0.064 4.8 0.768 5.376 3.712 2.368 11.2 4.864 22.4 6.912 33.664 0.256 1.344-1.28 3.712-2.624 4.672-11.904 8.896-24.768 16.128-38.656 21.312-45.568 17.024-87.296 10.496-124.736-20.928-1.984-1.664-4.288-4.992-3.904-7.104 1.792-11.008 4.416-21.824 6.912-32.704 0.192-1.024 1.92-2.432 3.008-2.496 8.384-0.128 16.768-0.064 25.216-0.064zM721.216 299.904c12.032-22.464 39.936-47.744 71.616-45.44 25.28 1.792 52.096 23.936 62.656 45.632-3.136 0-6.080 0-8.96 0-6.592 0-6.592 0-6.784-6.656-0.32-9.984-0.32-9.984-10.24-11.904-0.128 0-0.32-0.064-0.448-0.064-21.44-3.776-42.944-3.264-64.448-1.344-7.808 0.704-15.552 2.048-23.232 3.072-0.384 6.016-0.704 11.328-1.024 16.768-6.848-0.064-12.672-0.064-19.136-0.064zM889.344 402.944v-19.52c-0.512 1.216-1.344 2.304-2.88 3.264-9.472 5.888-18.368 12.672-27.968 18.368-22.528 13.504-47.168 19.776-72.576 20.288-37.824-0.384-65.216-13.056-90.88-34.368-2.944-2.496-5.888-5.312-7.936-8.576-0.768-1.344-1.344-2.624-1.792-3.968v24.512c0 0 6.72 65.792 12.672 83.264 0.448 1.28 1.28 2.304 2.176 3.264 5.504 5.44 15.232 7.040 22.528 8.448 10.752 1.984 21.696 2.944 32.576 3.584 22.912 1.28 46.208 1.28 69.056-0.32 11.2-0.768 22.592-1.856 33.6-4.544 5.888-1.408 16.384-3.712 18.688-10.432 6.016-17.408 12.736-83.264 12.736-83.264z" />
<glyph unicode="&#xe92b;" glyph-name="book" d="M896 832v-832h-672c-53.024 0-96 42.976-96 96s42.976 96 96 96h608v768h-640c-70.4 0-128-57.6-128-128v-768c0-70.4 57.6-128 128-128h768v896h-64zM224.064 128v0c-0.032 0-0.032 0-0.064 0-17.664 0-32-14.336-32-32s14.336-32 32-32c0.032 0 0.032 0 0.064 0v0h607.904v64h-607.904z" />
<glyph unicode="&#xe92c;" glyph-name="bookmark" d="M192 960v-1024l320 320 320-320v1024z" />
<glyph unicode="&#xe92d;" glyph-name="bookmarks" d="M256 832v-896l320 320 320-320v896zM768 960h-640v-896l64 64v768h576z" />
<glyph unicode="&#xe92e;" glyph-name="books" horiz-adv-x="1152" d="M224 832h-192c-17.6 0-32-14.4-32-32v-704c0-17.6 14.4-32 32-32h192c17.6 0 32 14.4 32 32v704c0 17.6-14.4 32-32 32zM192 640h-128v64h128v-64zM544 832h-192c-17.6 0-32-14.4-32-32v-704c0-17.6 14.4-32 32-32h192c17.6 0 32 14.4 32 32v704c0 17.6-14.4 32-32 32zM512 640h-128v64h128v-64zM765.088 782.528l-171.456-86.4c-15.712-7.904-22.112-27.264-14.176-42.976l287.968-571.552c7.904-15.712 27.264-22.112 42.976-14.176l171.456 86.4c15.712 7.904 22.112 27.264 14.176 42.976l-287.968 571.552c-7.904 15.712-27.264 22.112-42.976 14.176z" />
<glyph unicode="&#xe92f;" glyph-name="borderall" d="M809.984 489.984v256h-256v-256h256zM809.984 150.016v256h-256v-256h256zM470.016 489.984v256h-256v-256h256zM470.016 150.016v256h-256v-256h256zM128 832h768v-768h-768v768z" />
<glyph unicode="&#xe930;" glyph-name="borderbottom" d="M214.016 320v-86.016h-86.016v86.016h86.016zM128 64v86.016h768v-86.016h-768zM214.016 489.984v-84.011h-86.016v84.011h86.016zM809.984 576v86.016h86.016v-86.016h-86.016zM809.984 832h86.016v-86.016h-86.016v86.016zM214.016 662.016v-86.016h-86.016v86.016h86.016zM809.984 233.984v86.016h86.016v-86.016h-86.016zM809.984 406.016v84.011h86.016v-84.011h-86.016zM726.016 832v-86.016h-86.016v86.016h86.016zM553.984 832v-86.016h-84.011v86.016h84.011zM726.016 489.984v-84.011h-86.016v84.011h86.016zM553.984 662.016v-86.016h-84.011v86.016h84.011zM214.016 832v-86.016h-86.016v86.016h86.016zM553.984 489.984v-84.011h-84.011v84.011h84.011zM384 832v-86.016h-86.016v86.016h86.016zM553.984 320v-86.016h-84.011v86.016h84.011zM384 489.984v-84.011h-86.016v84.011h86.016z" />
<glyph unicode="&#xe931;" glyph-name="bordercolor" d="M0 105.984h1024v-169.984h-1024v169.984zM884.011 788.011l-84.011-84.011-160 160 84.011 84.011c16 16 43.989 16 59.989 0l100.011-100.011c16-16 16-43.989 0-59.989zM758.016 662.016l-427.989-427.989h-160v160l427.989 427.989z" />
<glyph unicode="&#xe932;" glyph-name="boxadd" d="M832 896h-640l-192-192v-672c0-17.664 14.336-32 32-32h960c17.664 0 32 14.336 32 32v672l-192 192zM512 128l-320 256h192v192h256v-192h192l-320-256zM154.496 768l64 64h586.976l64-64h-714.976z" />
<glyph unicode="&#xe933;" glyph-name="boxremove" d="M832 896h-640l-192-192v-672c0-17.664 14.336-32 32-32h960c17.664 0 32 14.336 32 32v672l-192 192zM640 320v-192h-256v192h-192l320 256 320-256h-192zM154.496 768l64 64h586.976l64-64h-714.976z" />
</font>
</defs>
</svg>
